<svg id="Capa_1" data-name="Capa 1" xmlns="http://www.w3.org/2000/svg" viewBox="0 0 1195.71 450"><defs><style>.cls-1{fill:#fff;}</style></defs><path class="cls-1" d="M237.62,151.16c-2.73-.13-5.44,1-8.18.09-1.94-5.39,2.38-7.25,5.67-8.94a46.35,46.35,0,0,1,20.46-5.63c11.13-.2,22.1-.75,33,3.27,17.07,6.28,21.3,22.16,16.85,36.51C301,191,290,199.69,276.83,205.83c-22.29,10.43-45.73,9.37-69.38,6.51-24.45-3-47.52-11-70.74-18.51-10.61-3.43-21.36-6.31-32.47-7.15-16.23-1.23-30.38,3.55-41,16.42-4.44,5.39-5.43,12.25-6.74,18.87-.51,2.59-.65,5.44-4.42,4.79-3.49-.59-5-2.56-4.13-6.28,1-4.59-.77-9.18.89-14.06C55.13,188,68.08,177.9,86.63,173.83c14.47-3.18,28.75-1.4,43,1.18,19.18,3.47,37.83,9.05,56.49,14.61,5.38,1.6,11.15,1.75,16.67,3,16.23,2.67,32.46,3.88,48.71.1,4.25-1,8.42-2.14,12.17-4.44,5.76-3.15,11.31-6.53,15.95-11.32a34.15,34.15,0,0,0,6.7-9.8c2-4.38.64-10.45-3.45-13.13-4.24-2.79-8.86-4.89-14.22-5A155.64,155.64,0,0,0,237.62,151.16Z"/><rect class="cls-1" x="114.36" y="329.5" width="11.37" height="53.46" rx="3.52" transform="translate(-149.52 94.23) rotate(-27.19)"/><rect class="cls-1" x="170.34" y="319.46" width="11.37" height="53.46" rx="3.52" transform="translate(-17.88 9.69) rotate(-3)"/><rect class="cls-1" x="224.76" y="319.11" width="11.37" height="53.46" rx="3.52" transform="translate(383.96 732.04) rotate(-168)"/><path class="cls-1" d="M270.65,381.88c-2.26,5.82-3.2,12-5.7,17.72-1.62,3.71-3.57,5.43-7.78,5.24-14.61-.68-42.88-2.41-43.81-2.36-27.24,1.07-52.92,7.27-56.11,8.51-3.9,1.36-6.14,2.31-23.86,12.05-4.29,2.36-8.65,3.72-10.74-.7-4.31-9.08-1.13-17.73,8-22.53,8.41-4.41,17.51-6.17,26.73-7.68,19.63-3.2,39.41-2.33,59.14-2.08,9.79.12,19.48,2.55,29.29,3.08,7.48.4,7.73-.23,10-7.19,5-15.23,10.47-30.31,15.6-45.5,1.15-3.4,3.33-5.21,7.07-4.28s5.1,3.51,4.56,7"/><path class="cls-1" d="M132.19,37a5.47,5.47,0,0,0-.52-.67c-3.59-3.93-3.46-3.89-5.33-5.85A15.1,15.1,0,0,1,125,28.8a4.86,4.86,0,0,1,1.24-7.07c1.73-1,3.6-.6,5.68,1.44,8.51,8.35,15.4,17.14,17.57,29.93.72,4.24,1.76,6.15,6.4,7,7.5,1.44,14.29,4.84,16.38,13.37.57,2.3,1.33,5.06-1,6.56-2.57,1.64-4.93.64-7.29-1.54-6.27-5.77-14.69-4.81-17.53,1.66a7.38,7.38,0,0,0-.43,5.87c.86,2.14,2.23,4,4.75,4s3.68-1.61,4.27-4.13c.69-2.94,1.36-6.64,5.47-6.42s5.74,3.71,6.38,7.23c2.5,13.64-6.75,19.5-19.16,17.85-17.26-2.28-17.64-22-14.87-30.32a21.24,21.24,0,0,1,4.76-7.93c4.11-4.32,5-10.52,2.22-16.5A110,110,0,0,0,132.19,37Z"/><path class="cls-1" d="M234.69,126.64c1.14,1.91,4.13,3.49,2.36,6.08-2.14,3.12-5.74,2.08-8.59,1.32a130.63,130.63,0,0,0-37.37-4.31c-9.85.25-19.64,1-29.09,4.1-6.08,3.35-13,4.24-19.44,6.56a243.5,243.5,0,0,0-31.88,14.49c-4.67,2.49-9.41,4.9-13.94,7.67-2.35,1.45-5.53,3.21-7.53,1.2-2.55-2.56-.45-5.95,1.3-8.43,5.76-8.19,13.26-14.58,21.56-20.09,14.87-9.87,31.42-15.85,48.73-19,21-3.8,42.12-3.88,62.64,3.75A32,32,0,0,1,234.69,126.64Z"/><path class="cls-1" d="M63.68,266.58c-.19,7.05.81,13.91,4.19,20.31C73,296.56,85.68,308.54,102,310.13c13.46,1.32,35.07-.53,52.62-3.44,32.24-5.35,74.78-21.65,108-22.35,16-.33,32.05.16,47.15,6.15,9.15,3.63,12.28,12.68,7.23,19.58-1,1.39-1.82,3.5-4.28,1.64-22-16.53-47.89-15.79-73.64-14.94-22.09.73-55,11.05-76.11,16.73-16.14,4.34-32.46,8.91-49.25,10-44,2.91-76-27.63-71.4-58.84,4.15-27.9,34.66-51.92,64-50.37,5.77.3,11,1.88,12.4,7.95,1.13,4.79-2.44,7.58-6.17,10-2.24,1.45-3.67,1.49-4.72-1.43-2.77-7.7-9.27-7-15.5-5.47-15.89,3.78-27.08,18-28.59,35.8C63.54,263,63.68,264.77,63.68,266.58Z"/><path class="cls-1" d="M126.81,245.1l-6.3,31.72a4,4,0,0,1-3.89,3.19h-6a1,1,0,0,1-1-1.17h0a1,1,0,0,0-1.5-1,17,17,0,0,1-9.61,2.73,16.72,16.72,0,0,1-8.16-2,15.2,15.2,0,0,1-5.94-5.86,17.84,17.84,0,0,1-2.21-9,22.83,22.83,0,0,1,2.78-11.28,20.49,20.49,0,0,1,7.55-7.87,20.22,20.22,0,0,1,10.55-2.85q7.34,0,11,4a1,1,0,0,0,1.68-.5l.08-.43a3.14,3.14,0,0,1,3.08-2.55h5.41A2.43,2.43,0,0,1,126.81,245.1Zm-19.1,24.82a10.63,10.63,0,0,0,3.94-4.39,14.23,14.23,0,0,0,1.41-6.47,8.21,8.21,0,0,0-2.29-6.11,8.66,8.66,0,0,0-6.36-2.25,10.64,10.64,0,0,0-5.76,1.58,10.76,10.76,0,0,0-3.94,4.39,14.29,14.29,0,0,0-1.4,6.47,8.21,8.21,0,0,0,2.28,6.12,8.66,8.66,0,0,0,6.36,2.25A10.59,10.59,0,0,0,107.71,269.92Z"/><path class="cls-1" d="M144.9,266.65a6.44,6.44,0,0,0-.14,1.55q0,3.66,4,3.66a7.46,7.46,0,0,0,2.07-.3,2.37,2.37,0,0,1,2.95,1.83l.66,3.15a2.37,2.37,0,0,1-1.39,2.68,19.65,19.65,0,0,1-7.66,1.35,12.6,12.6,0,0,1-8.58-2.81,9.72,9.72,0,0,1-3.23-7.73,18.75,18.75,0,0,1,.35-3.3l2.46-12.4a2.4,2.4,0,0,0-2.35-2.86h0a2.4,2.4,0,0,1-2.35-2.86l.73-3.65a2.4,2.4,0,0,1,2.35-1.92h1.91a2.39,2.39,0,0,0,2.34-1.93l1.07-5.35a2.39,2.39,0,0,1,2.34-1.93h6.09a2.39,2.39,0,0,1,2.34,2.86l-.69,3.49a2.4,2.4,0,0,0,2.35,2.86h3.59a2.39,2.39,0,0,1,2.34,2.86l-.73,3.65a2.38,2.38,0,0,1-2.34,1.92h-5.5a2.39,2.39,0,0,0-2.34,1.93Z"/><path class="cls-1" d="M190.23,261.06l8.49,14a3.28,3.28,0,0,1-2.8,5h-5a3.25,3.25,0,0,1-2.8-1.57L182,268.56a3.28,3.28,0,0,0-4.9-.81l-2.86,2.38a3.22,3.22,0,0,0-1.12,1.88l-1.08,5.36a3.28,3.28,0,0,1-3.22,2.64h-4.26a3.29,3.29,0,0,1-3.23-3.93l9.1-45.58a3.27,3.27,0,0,1,3.22-2.64h4.26a3.28,3.28,0,0,1,3.22,3.93L177.9,248a3.29,3.29,0,0,0,5.3,3.19l10.13-8.28a3.3,3.3,0,0,1,2.08-.75h4a3.29,3.29,0,0,1,2.1,5.81l-10.6,8.83A3.28,3.28,0,0,0,190.23,261.06Z"/><path class="cls-1" d="M242,264.05H220.39a3.21,3.21,0,0,0-2.09,5.66q2.44,2.09,7.22,2.08a16.64,16.64,0,0,0,5.51-.92,15.32,15.32,0,0,0,2.14-.92,3.17,3.17,0,0,1,4.19,1.05l1.19,1.88a3.21,3.21,0,0,1-1.11,4.5,22.67,22.67,0,0,1-4.47,1.93,28.91,28.91,0,0,1-8.58,1.26,23.77,23.77,0,0,1-10.23-2.07,15.28,15.28,0,0,1-6.74-5.94,16.82,16.82,0,0,1-2.36-8.93,22.46,22.46,0,0,1,2.85-11.28,20.42,20.42,0,0,1,7.91-7.87,23,23,0,0,1,11.52-2.85,20.92,20.92,0,0,1,9.53,2,14.8,14.8,0,0,1,6.25,5.83,17.09,17.09,0,0,1,2.22,8.79,24.91,24.91,0,0,1-.18,2.9A3.22,3.22,0,0,1,242,264.05Zm-21.64-12.12-.06,0a3.21,3.21,0,0,0,2.05,5.69H231a3.21,3.21,0,0,0,2.41-5.34l-.4-.39a8.8,8.8,0,0,0-6.15-2.07A10.3,10.3,0,0,0,220.32,251.93Z"/><path class="cls-1" d="M269.73,241.2h3.11a1.67,1.67,0,0,1,1,3l-5.57,4.09a1.68,1.68,0,0,1-1,.33h-1.8a1.67,1.67,0,0,1-1.16-2.88l4.26-4.1A1.67,1.67,0,0,1,269.73,241.2Z"/><path class="cls-1" d="M286.12,279.31a34.26,34.26,0,0,1-5.08-1.88,3.9,3.9,0,0,1-1.76-5.36l1-1.8a3.92,3.92,0,0,1,5.28-1.63,26.77,26.77,0,0,0,4.26,1.74,28.47,28.47,0,0,0,8.65,1.34,15.21,15.21,0,0,0,7.45-1.55,4.7,4.7,0,0,0,2.74-4.22,3.65,3.65,0,0,0-2.18-3.34,37.47,37.47,0,0,0-7-2.49,70.08,70.08,0,0,1-7.8-2.71,14,14,0,0,1-5.24-3.9,10.29,10.29,0,0,1-2.21-6.89,14.48,14.48,0,0,1,2.77-8.78,17.59,17.59,0,0,1,7.88-5.84,31.67,31.67,0,0,1,11.84-2,39.62,39.62,0,0,1,9.42,1.09,29.15,29.15,0,0,1,4,1.3,3.75,3.75,0,0,1,1.94,5.14l-.91,1.86a3.75,3.75,0,0,1-4.88,1.79,22.43,22.43,0,0,0-3.05-1.09,27,27,0,0,0-7.17-1,14.77,14.77,0,0,0-7.66,1.69l-.08,0a4.78,4.78,0,0,0,.33,8.29,11,11,0,0,0,1.15.49c1.22.45,2.93,1,5.13,1.58a57,57,0,0,1,7.73,2.57,14,14,0,0,1,5.17,3.79,9.76,9.76,0,0,1,2.14,6.58,14.3,14.3,0,0,1-2.81,8.82,18.08,18.08,0,0,1-7.94,5.83,31.78,31.78,0,0,1-11.95,2.07A40,40,0,0,1,286.12,279.31Z"/><path class="cls-1" d="M523.28,339.85V324.37c-4.85-4.38-12.19-5.08-17.35-1.1A42.73,42.73,0,0,1,479.44,332a46.16,46.16,0,0,1-22.67-5.55,39.48,39.48,0,0,1-15.47-15.55,48.44,48.44,0,0,1,0-45.33A39.48,39.48,0,0,1,456.77,250a46.16,46.16,0,0,1,22.67-5.55,43.17,43.17,0,0,1,26.49,8.6,12.77,12.77,0,0,0,7.74,2.58,14.44,14.44,0,0,0,13.49-9.76c2-5.77-.64-12.22-5.64-15.75a66,66,0,0,0-11.45-6.38,80.51,80.51,0,0,0-32.2-6.25c-14.06,0-26.72,3-38,9.07a68.21,68.21,0,0,0-26.57,25.24,73.27,73.27,0,0,0,0,72.83,68.21,68.21,0,0,0,26.57,25.24,78.89,78.89,0,0,0,37.83,9.07,80.5,80.5,0,0,0,32.19-6.25,71.44,71.44,0,0,0,9.15-4.81A9.39,9.39,0,0,0,523.28,339.85Z"/><path class="cls-1" d="M632.45,261.54q-13.12-11.61-37.51-11.65a93.07,93.07,0,0,0-24.7,3.28,70,70,0,0,0-13.3,5.1,8.86,8.86,0,0,0-3.44,11.9l2.6,5a9,9,0,0,0,11.7,4.11,56,56,0,0,1,23-5.2c8.12,0,14.14,1.8,18.2,5.39h0a9,9,0,0,1-6.35,15.32H590.8c-15.32,0-26.73,2.81-34.08,8.36s-11,13.28-11,23.05a29.26,29.26,0,0,0,4.69,16.41A31.17,31.17,0,0,0,564,354c5.86,2.73,12.9,4.14,20.94,4.14,15.63,0,26.34-4.93,32.05-14.7v4.07a9.05,9.05,0,0,0,9.06,9.06h10.47a9,9,0,0,0,9-9v-51C645.5,280.92,641.12,269.27,632.45,261.54ZM615,321.4a9.31,9.31,0,0,1-.74,3.83,19.29,19.29,0,0,1-7.85,8.75,26.13,26.13,0,0,1-13.84,3.59c-5.39,0-9.53-1.09-12.58-3.36a10.84,10.84,0,0,1-4.61-9.3c0-8.2,6.25-12.34,18.76-12.34H615Z"/><path class="cls-1" d="M737.48,342.65l-1.09-2.81a10.3,10.3,0,0,0-11.38-6.4,26.44,26.44,0,0,1-4.64.46c-4.22,0-7.43-1.17-9.69-3.59s-3.44-5.87-3.44-10.32V287.56a10.35,10.35,0,0,1,10.31-10.32h5.63a10.29,10.29,0,0,0,10.24-10.31V264a10.27,10.27,0,0,0-10.24-10.24h-5.63a10.32,10.32,0,0,1-10.31-10.31v-5A10.29,10.29,0,0,0,697,228.17h-9.93a10.32,10.32,0,0,0-10.31,10.31v7.19a8,8,0,0,1-7.87,8.13,8.07,8.07,0,0,0-8.31,8.13v7.19a8.12,8.12,0,0,0,8.32,8.12,8,8,0,0,1,7.86,8.13v35q0,18.64,10.31,28.13c6.8,6.41,16.49,9.62,29,9.62a56.9,56.9,0,0,0,13.75-1.64,6.37,6.37,0,0,1,1.17-.32A10.21,10.21,0,0,0,737.48,342.65Z"/><path class="cls-1" d="M858.62,337.9,832,304a11.57,11.57,0,0,1,.78-15.24l17.35-17.66a11.52,11.52,0,0,0-8.2-19.61h-4.22a11.53,11.53,0,0,0-7.94,3.16l-21.65,20.56a11.59,11.59,0,0,1-19.57-8.41v-43.6A11.53,11.53,0,0,0,777,211.6H769.6A11.57,11.57,0,0,0,758,223.17V345a11.56,11.56,0,0,0,11.57,11.56H777A11.52,11.52,0,0,0,788.51,345V334.6a11.66,11.66,0,0,1,3.44-8.2l2.19-2.11a11.6,11.6,0,0,1,17.08,1.07l21.68,26.91a11.72,11.72,0,0,0,9.06,4.29h7.58A11.53,11.53,0,0,0,858.62,337.9Z"/><path class="cls-1" d="M983.72,289.28a51,51,0,0,0-5.39-13.68,49.07,49.07,0,0,0-19.61-19.07,62.26,62.26,0,0,0-56.58.32,50.83,50.83,0,0,0-20.09,19.3A53.46,53.46,0,0,0,874.71,304c0,10.47,2.42,19.77,7.42,28a50.42,50.42,0,0,0,21.1,19.22c9.07,4.61,19.62,7,31.42,7q23.18,0,37.3-11.18a8,8,0,0,0,.68-11.72l-5.71-6.1A8.22,8.22,0,0,0,956.21,328a28.76,28.76,0,0,1-6.17,3.2,40.45,40.45,0,0,1-14.61,2.43q-11.83,0-19.93-5.63c-.47-.31-.86-.7-1.33-1-5.94-4.76-2.42-14.45,5.24-14.45h56.81A16.93,16.93,0,0,0,985.36,301,56.71,56.71,0,0,0,983.72,289.28Zm-39.15,5.55H917.06c-6.72,0-10.78-7.9-6.48-13.05a25.24,25.24,0,0,1,3-3C918.24,274.9,924,273,931,273a25.71,25.71,0,0,1,17.2,5.94,24.68,24.68,0,0,1,3.12,3.26C955.16,287.38,951.08,294.83,944.57,294.83Z"/><path class="cls-1" d="M1167.69,300.54a43.07,43.07,0,0,0-17.11-11.73,223.12,223.12,0,0,0-25.56-7.42c-10-2.19-17.5-4.45-22.35-6.72s-7.34-5.78-7.34-10.47,2.11-8.44,6.33-11.33,10.78-4.3,19.61-4.3a73,73,0,0,1,29.49,6.47,9.19,9.19,0,0,0,12.22-5l2.8-7A9.45,9.45,0,0,0,1161,231a82.74,82.74,0,0,0-13.9-4.7,103.52,103.52,0,0,0-25.55-3.13c-12.51,0-23.13,1.88-31.73,5.63s-15.16,8.91-19.46,15.39a37.88,37.88,0,0,0-6.48,21.57c0,9.14,2.42,16.41,7.18,21.88a40.44,40.44,0,0,0,17,11.88,210,210,0,0,0,25.63,7.42c6.72,1.57,12.12,3.05,16.1,4.3a28.19,28.19,0,0,1,9.77,5.24,10,10,0,0,1,3.83,8c0,4.45-2.19,8.05-6.49,10.7s-10.94,4-19.92,4a79.64,79.64,0,0,1-24.23-3.91,75.39,75.39,0,0,1-12.83-5.37,8.91,8.91,0,0,0-12.28,4.35l-3.21,7.15a9.26,9.26,0,0,0,3.91,12,86.69,86.69,0,0,0,17.14,6.84,112.93,112.93,0,0,0,31.34,4.38c12.5,0,23.13-1.88,31.8-5.71s15.32-8.83,19.7-15.31a37.75,37.75,0,0,0,6.48-21.42C1174.8,313.12,1172.46,305.85,1167.69,300.54Z"/><path class="cls-1" d="M999.79,180.72a5.47,5.47,0,0,0-.52-.67c-3.59-3.93-3.46-3.89-5.33-5.85a15.1,15.1,0,0,1-1.39-1.64,4.86,4.86,0,0,1,1.24-7.07c1.73-1,3.6-.6,5.68,1.44,8.51,8.35,15.4,17.14,17.57,29.93.72,4.24,1.76,6.15,6.4,7,7.5,1.44,14.29,4.84,16.38,13.37.57,2.3,1.33,5.06-1,6.56-2.57,1.64-4.93.64-7.29-1.54-6.27-5.78-14.69-4.81-17.53,1.66a7.38,7.38,0,0,0-.43,5.87c.86,2.14,2.23,4,4.75,4s3.68-1.61,4.27-4.13c.69-2.94,1.36-6.64,5.47-6.42s5.74,3.71,6.38,7.23c2.5,13.64-6.75,19.5-19.16,17.85-17.26-2.28-17.64-22-14.87-30.32a21.24,21.24,0,0,1,4.76-7.93c4.11-4.32,5.05-10.52,2.22-16.5A110,110,0,0,0,999.79,180.72Z"/><path class="cls-1" d="M608.47,224.33a10.71,10.71,0,0,0-.31-2.22Z"/></svg>